STARTFONT 2.1
COMMENT
COMMENT Converted from OpenType font "LondonIbus.ttf" by "otf2bdf 3.0".
COMMENT
FONT -FreeType-LondonIbus-Medium-R-Normal--48-70-500-500-P-121-ISO10646-1
SIZE 7 500 500
FONTBOUNDINGBOX 18 27 0 -6
STARTPROPERTIES 19
FOUNDRY "FreeType"
FAMILY_NAME "LondonIbus"
WEIGHT_NAME "Medium"
SLANT "R"
SETWIDTH_NAME "Normal"
ADD_STYLE_NAME ""
PIXEL_SIZE 48
POINT_SIZE 70
RESOLUTION_X 500
RESOLUTION_Y 500
SPACING "P"
AVERAGE_WIDTH 121
CHARSET_REGISTRY "ISO10646"
CHARSET_ENCODING "1"
FONT_ASCENT 32
FONT_DESCENT 6
COPYRIGHT "ImBenji"
_OTF_FONTFILE "LondonIbus.ttf"
_OTF_PSNAME "LondonIbus"
ENDPROPERTIES
CHARS 76
STARTCHAR 0020
ENCODING 32
SWIDTH 308 0
DWIDTH 15 0
BBX 0 0 0 0
BITMAP
ENDCHAR
STARTCHAR 0021
ENCODING 33
SWIDTH 123 0
DWIDTH 6 0
BBX 3 21 0 0
BITMAP
E0
E0
E0
E0
E0
E0
E0
E0
E0
E0
E0
E0
E0
E0
E0
00
00
00
E0
E0
E0
ENDCHAR
STARTCHAR 0026
ENCODING 38
SWIDTH 432 0
DWIDTH 21 0
BBX 18 21 0 0
BITMAP
038000
038000
038000
1C7000
1C7000
1C7000
0381C0
0381C0
0381C0
1F81C0
1F81C0
1F81C0
E07E00
E07E00
E07E00
E07E00
E07E00
E07E00
1F81C0
1F81C0
1F81C0
ENDCHAR
STARTCHAR 0027
ENCODING 39
SWIDTH 185 0
DWIDTH 9 0
BBX 6 6 0 15
BITMAP
1C
1C
1C
E0
E0
E0
ENDCHAR
STARTCHAR 0028
ENCODING 40
SWIDTH 185 0
DWIDTH 9 0
BBX 6 24 0 -3
BITMAP
1C
1C
1C
E0
E0
E0
E0
E0
E0
E0
E0
E0
E0
E0
E0
E0
E0
E0
E0
E0
E0
1C
1C
1C
ENDCHAR
STARTCHAR 0029
ENCODING 41
SWIDTH 185 0
DWIDTH 9 0
BBX 6 24 0 -3
BITMAP
E0
E0
E0
1C
1C
1C
1C
1C
1C
1C
1C
1C
1C
1C
1C
1C
1C
1C
1C
1C
1C
E0
E0
E0
ENDCHAR
STARTCHAR 002A
ENCODING 42
SWIDTH 370 0
DWIDTH 18 0
BBX 15 18 0 0
BITMAP
0380
0380
0380
E38E
E38E
E38E
1FF0
1FF0
1FF0
1FF0
1FF0
1FF0
E38E
E38E
E38E
0380
0380
0380
ENDCHAR
STARTCHAR 002C
ENCODING 44
SWIDTH 185 0
DWIDTH 9 0
BBX 6 9 0 -6
BITMAP
1C
1C
1C
1C
1C
1C
E0
E0
E0
ENDCHAR
STARTCHAR 002D
ENCODING 45
SWIDTH 246 0
DWIDTH 12 0
BBX 9 3 0 6
BITMAP
FF80
FF80
FF80
ENDCHAR
STARTCHAR 002E
ENCODING 46
SWIDTH 123 0
DWIDTH 6 0
BBX 3 3 0 0
BITMAP
E0
E0
E0
ENDCHAR
STARTCHAR 002F
ENCODING 47
SWIDTH 308 0
DWIDTH 15 0
BBX 12 24 0 -3
BITMAP
0070
0070
0070
0070
0070
0070
0380
0380
0380
0380
0380
0380
1C00
1C00
1C00
1C00
1C00
1C00
E000
E000
E000
E000
E000
E000
ENDCHAR
STARTCHAR 0030
ENCODING 48
SWIDTH 308 0
DWIDTH 15 0
BBX 12 21 0 0
BITMAP
1F80
1F80
1F80
E070
E070
E070
E070
E070
E070
E070
E070
E070
E070
E070
E070
E070
E070
E070
1F80
1F80
1F80
ENDCHAR
STARTCHAR 0031
ENCODING 49
SWIDTH 246 0
DWIDTH 12 0
BBX 9 21 0 0
BITMAP
1C00
1C00
1C00
FC00
FC00
FC00
1C00
1C00
1C00
1C00
1C00
1C00
1C00
1C00
1C00
1C00
1C00
1C00
FF80
FF80
FF80
ENDCHAR
STARTCHAR 0032
ENCODING 50
SWIDTH 308 0
DWIDTH 15 0
BBX 12 21 0 0
BITMAP
1F80
1F80
1F80
E070
E070
E070
0070
0070
0070
0380
0380
0380
1C00
1C00
1C00
E000
E000
E000
FFF0
FFF0
FFF0
ENDCHAR
STARTCHAR 0033
ENCODING 51
SWIDTH 308 0
DWIDTH 15 0
BBX 12 21 0 0
BITMAP
1F80
1F80
1F80
E070
E070
E070
0070
0070
0070
1F80
1F80
1F80
0070
0070
0070
E070
E070
E070
1F80
1F80
1F80
ENDCHAR
STARTCHAR 0034
ENCODING 52
SWIDTH 370 0
DWIDTH 18 0
BBX 15 21 0 0
BITMAP
0070
0070
0070
03F0
03F0
03F0
1C70
1C70
1C70
E070
E070
E070
FFFE
FFFE
FFFE
0070
0070
0070
0070
0070
0070
ENDCHAR
STARTCHAR 0035
ENCODING 53
SWIDTH 308 0
DWIDTH 15 0
BBX 12 21 0 0
BITMAP
FFF0
FFF0
FFF0
E000
E000
E000
FF80
FF80
FF80
0070
0070
0070
0070
0070
0070
E070
E070
E070
1F80
1F80
1F80
ENDCHAR
STARTCHAR 0036
ENCODING 54
SWIDTH 308 0
DWIDTH 15 0
BBX 12 21 0 0
BITMAP
1F80
1F80
1F80
E070
E070
E070
E000
E000
E000
FF80
FF80
FF80
E070
E070
E070
E070
E070
E070
1F80
1F80
1F80
ENDCHAR
STARTCHAR 0037
ENCODING 55
SWIDTH 308 0
DWIDTH 15 0
BBX 12 21 0 0
BITMAP
FFF0
FFF0
FFF0
0070
0070
0070
0380
0380
0380
0380
0380
0380
1C00
1C00
1C00
1C00
1C00
1C00
1C00
1C00
1C00
ENDCHAR
STARTCHAR 0038
ENCODING 56
SWIDTH 308 0
DWIDTH 15 0
BBX 12 21 0 0
BITMAP
1F80
1F80
1F80
E070
E070
E070
E070
E070
E070
1F80
1F80
1F80
E070
E070
E070
E070
E070
E070
1F80
1F80
1F80
ENDCHAR
STARTCHAR 0039
ENCODING 57
SWIDTH 308 0
DWIDTH 15 0
BBX 12 21 0 0
BITMAP
1F80
1F80
1F80
E070
E070
E070
E070
E070
E070
1FF0
1FF0
1FF0
0070
0070
0070
E070
E070
E070
1F80
1F80
1F80
ENDCHAR
STARTCHAR 003A
ENCODING 58
SWIDTH 123 0
DWIDTH 6 0
BBX 3 9 0 3
BITMAP
E0
E0
E0
00
00
00
E0
E0
E0
ENDCHAR
STARTCHAR 003F
ENCODING 63
SWIDTH 308 0
DWIDTH 15 0
BBX 12 21 0 0
BITMAP
1F80
1F80
1F80
E070
E070
E070
0070
0070
0070
0380
0380
0380
1C00
1C00
1C00
0000
0000
0000
1C00
1C00
1C00
ENDCHAR
STARTCHAR 0041
ENCODING 65
SWIDTH 370 0
DWIDTH 18 0
BBX 15 21 0 0
BITMAP
0380
0380
0380
1C70
1C70
1C70
E00E
E00E
E00E
E00E
E00E
E00E
FFFE
FFFE
FFFE
E00E
E00E
E00E
E00E
E00E
E00E
ENDCHAR
STARTCHAR 0042
ENCODING 66
SWIDTH 370 0
DWIDTH 18 0
BBX 15 21 0 0
BITMAP
FFF0
FFF0
FFF0
E00E
E00E
E00E
E00E
E00E
E00E
FFF0
FFF0
FFF0
E00E
E00E
E00E
E00E
E00E
E00E
FFF0
FFF0
FFF0
ENDCHAR
STARTCHAR 0043
ENCODING 67
SWIDTH 370 0
DWIDTH 18 0
BBX 15 21 0 0
BITMAP
03F0
03F0
03F0
1C0E
1C0E
1C0E
E000
E000
E000
E000
E000
E000
E000
E000
E000
1C0E
1C0E
1C0E
03F0
03F0
03F0
ENDCHAR
STARTCHAR 0044
ENCODING 68
SWIDTH 370 0
DWIDTH 18 0
BBX 15 21 0 0
BITMAP
FF80
FF80
FF80
E070
E070
E070
E00E
E00E
E00E
E00E
E00E
E00E
E00E
E00E
E00E
E070
E070
E070
FF80
FF80
FF80
ENDCHAR
STARTCHAR 0045
ENCODING 69
SWIDTH 308 0
DWIDTH 15 0
BBX 12 21 0 0
BITMAP
FFF0
FFF0
FFF0
E000
E000
E000
E000
E000
E000
FF80
FF80
FF80
E000
E000
E000
E000
E000
E000
FFF0
FFF0
FFF0
ENDCHAR
STARTCHAR 0046
ENCODING 70
SWIDTH 370 0
DWIDTH 18 0
BBX 15 21 0 0
BITMAP
FFFE
FFFE
FFFE
E000
E000
E000
E000
E000
E000
FFF0
FFF0
FFF0
E000
E000
E000
E000
E000
E000
E000
E000
E000
ENDCHAR
STARTCHAR 0047
ENCODING 71
SWIDTH 370 0
DWIDTH 18 0
BBX 15 21 0 0
BITMAP
1FF0
1FF0
1FF0
E00E
E00E
E00E
E000
E000
E000
E07E
E07E
E07E
E00E
E00E
E00E
E00E
E00E
E00E
1FFE
1FFE
1FFE
ENDCHAR
STARTCHAR 0048
ENCODING 72
SWIDTH 370 0
DWIDTH 18 0
BBX 15 21 0 0
BITMAP
E00E
E00E
E00E
E00E
E00E
E00E
E00E
E00E
E00E
FFFE
FFFE
FFFE
E00E
E00E
E00E
E00E
E00E
E00E
E00E
E00E
E00E
ENDCHAR
STARTCHAR 0049
ENCODING 73
SWIDTH 123 0
DWIDTH 6 0
BBX 3 21 0 0
BITMAP
E0
E0
E0
E0
E0
E0
E0
E0
E0
E0
E0
E0
E0
E0
E0
E0
E0
E0
E0
E0
E0
ENDCHAR
STARTCHAR 004A
ENCODING 74
SWIDTH 246 0
DWIDTH 12 0
BBX 9 21 0 0
BITMAP
0380
0380
0380
0380
0380
0380
0380
0380
0380
0380
0380
0380
0380
0380
0380
0380
0380
0380
FC00
FC00
FC00
ENDCHAR
STARTCHAR 004B
ENCODING 75
SWIDTH 370 0
DWIDTH 18 0
BBX 15 21 0 0
BITMAP
E00E
E00E
E00E
E070
E070
E070
E380
E380
E380
FC00
FC00
FC00
E380
E380
E380
E070
E070
E070
E00E
E00E
E00E
ENDCHAR
STARTCHAR 004C
ENCODING 76
SWIDTH 308 0
DWIDTH 15 0
BBX 12 21 0 0
BITMAP
E000
E000
E000
E000
E000
E000
E000
E000
E000
E000
E000
E000
E000
E000
E000
E000
E000
E000
FFF0
FFF0
FFF0
ENDCHAR
STARTCHAR 004D
ENCODING 77
SWIDTH 370 0
DWIDTH 18 0
BBX 15 21 0 0
BITMAP
E00E
E00E
E00E
FC7E
FC7E
FC7E
E38E
E38E
E38E
E38E
E38E
E38E
E00E
E00E
E00E
E00E
E00E
E00E
E00E
E00E
E00E
ENDCHAR
STARTCHAR 004E
ENCODING 78
SWIDTH 370 0
DWIDTH 18 0
BBX 15 21 0 0
BITMAP
E00E
E00E
E00E
FC0E
FC0E
FC0E
FC0E
FC0E
FC0E
E38E
E38E
E38E
E07E
E07E
E07E
E07E
E07E
E07E
E00E
E00E
E00E
ENDCHAR
STARTCHAR 004F
ENCODING 79
SWIDTH 370 0
DWIDTH 18 0
BBX 15 21 0 0
BITMAP
1FF0
1FF0
1FF0
E00E
E00E
E00E
E00E
E00E
E00E
E00E
E00E
E00E
E00E
E00E
E00E
E00E
E00E
E00E
1FF0
1FF0
1FF0
ENDCHAR
STARTCHAR 0050
ENCODING 80
SWIDTH 370 0
DWIDTH 18 0
BBX 15 21 0 0
BITMAP
FFF0
FFF0
FFF0
E00E
E00E
E00E
E00E
E00E
E00E
FFF0
FFF0
FFF0
E000
E000
E000
E000
E000
E000
E000
E000
E000
ENDCHAR
STARTCHAR 0051
ENCODING 81
SWIDTH 432 0
DWIDTH 21 0
BBX 18 24 0 -3
BITMAP
1FF000
1FF000
1FF000
E00E00
E00E00
E00E00
E00E00
E00E00
E00E00
E00E00
E00E00
E00E00
E00E00
E00E00
E00E00
E07E00
E07E00
E07E00
1FFE00
1FFE00
1FFE00
0001C0
0001C0
0001C0
ENDCHAR
STARTCHAR 0052
ENCODING 82
SWIDTH 370 0
DWIDTH 18 0
BBX 15 21 0 0
BITMAP
FFF0
FFF0
FFF0
E00E
E00E
E00E
E00E
E00E
E00E
FFF0
FFF0
FFF0
E070
E070
E070
E00E
E00E
E00E
E00E
E00E
E00E
ENDCHAR
STARTCHAR 0053
ENCODING 83
SWIDTH 308 0
DWIDTH 15 0
BBX 12 21 0 0
BITMAP
1F80
1F80
1F80
E070
E070
E070
E000
E000
E000
1F80
1F80
1F80
0070
0070
0070
E070
E070
E070
1F80
1F80
1F80
ENDCHAR
STARTCHAR 0054
ENCODING 84
SWIDTH 370 0
DWIDTH 18 0
BBX 15 21 0 0
BITMAP
FFFE
FFFE
FFFE
0380
0380
0380
0380
0380
0380
0380
0380
0380
0380
0380
0380
0380
0380
0380
0380
0380
0380
ENDCHAR
STARTCHAR 0055
ENCODING 85
SWIDTH 370 0
DWIDTH 18 0
BBX 15 21 0 0
BITMAP
E00E
E00E
E00E
E00E
E00E
E00E
E00E
E00E
E00E
E00E
E00E
E00E
E00E
E00E
E00E
E00E
E00E
E00E
1FF0
1FF0
1FF0
ENDCHAR
STARTCHAR 0056
ENCODING 86
SWIDTH 370 0
DWIDTH 18 0
BBX 15 21 0 0
BITMAP
E00E
E00E
E00E
E00E
E00E
E00E
E00E
E00E
E00E
E00E
E00E
E00E
E00E
E00E
E00E
1C70
1C70
1C70
0380
0380
0380
ENDCHAR
STARTCHAR 0057
ENCODING 87
SWIDTH 370 0
DWIDTH 18 0
BBX 15 21 0 0
BITMAP
E00E
E00E
E00E
E00E
E00E
E00E
E00E
E00E
E00E
E38E
E38E
E38E
E38E
E38E
E38E
FC7E
FC7E
FC7E
E00E
E00E
E00E
ENDCHAR
STARTCHAR 0058
ENCODING 88
SWIDTH 370 0
DWIDTH 18 0
BBX 15 21 0 0
BITMAP
E00E
E00E
E00E
E00E
E00E
E00E
1C70
1C70
1C70
0380
0380
0380
1C70
1C70
1C70
E00E
E00E
E00E
E00E
E00E
E00E
ENDCHAR
STARTCHAR 0059
ENCODING 89
SWIDTH 370 0
DWIDTH 18 0
BBX 15 21 0 0
BITMAP
E00E
E00E
E00E
E00E
E00E
E00E
1C70
1C70
1C70
0380
0380
0380
0380
0380
0380
0380
0380
0380
0380
0380
0380
ENDCHAR
STARTCHAR 005A
ENCODING 90
SWIDTH 370 0
DWIDTH 18 0
BBX 15 21 0 0
BITMAP
FFFE
FFFE
FFFE
000E
000E
000E
0070
0070
0070
0380
0380
0380
1C00
1C00
1C00
E000
E000
E000
FFFE
FFFE
FFFE
ENDCHAR
STARTCHAR 0061
ENCODING 97
SWIDTH 308 0
DWIDTH 15 0
BBX 12 15 0 0
BITMAP
1F80
1F80
1F80
0070
0070
0070
1FF0
1FF0
1FF0
E070
E070
E070
1FF0
1FF0
1FF0
ENDCHAR
STARTCHAR 0062
ENCODING 98
SWIDTH 308 0
DWIDTH 15 0
BBX 12 21 0 0
BITMAP
E000
E000
E000
E000
E000
E000
FF80
FF80
FF80
E070
E070
E070
E070
E070
E070
E070
E070
E070
FF80
FF80
FF80
ENDCHAR
STARTCHAR 0063
ENCODING 99
SWIDTH 308 0
DWIDTH 15 0
BBX 12 15 0 0
BITMAP
1FF0
1FF0
1FF0
E000
E000
E000
E000
E000
E000
E000
E000
E000
1FF0
1FF0
1FF0
ENDCHAR
STARTCHAR 0064
ENCODING 100
SWIDTH 308 0
DWIDTH 15 0
BBX 12 21 0 0
BITMAP
0070
0070
0070
0070
0070
0070
1FF0
1FF0
1FF0
E070
E070
E070
E070
E070
E070
E070
E070
E070
1FF0
1FF0
1FF0
ENDCHAR
STARTCHAR 0065
ENCODING 101
SWIDTH 308 0
DWIDTH 15 0
BBX 12 15 0 0
BITMAP
1F80
1F80
1F80
E070
E070
E070
FFF0
FFF0
FFF0
E000
E000
E000
1FF0
1FF0
1FF0
ENDCHAR
STARTCHAR 0066
ENCODING 102
SWIDTH 246 0
DWIDTH 12 0
BBX 9 21 0 0
BITMAP
0380
0380
0380
1C00
1C00
1C00
FF80
FF80
FF80
1C00
1C00
1C00
1C00
1C00
1C00
1C00
1C00
1C00
1C00
1C00
1C00
ENDCHAR
STARTCHAR 0067
ENCODING 103
SWIDTH 308 0
DWIDTH 15 0
BBX 12 21 0 -6
BITMAP
1FF0
1FF0
1FF0
E070
E070
E070
E070
E070
E070
E070
E070
E070
1FF0
1FF0
1FF0
0070
0070
0070
1F80
1F80
1F80
ENDCHAR
STARTCHAR 0068
ENCODING 104
SWIDTH 308 0
DWIDTH 15 0
BBX 12 21 0 0
BITMAP
E000
E000
E000
E000
E000
E000
FF80
FF80
FF80
E070
E070
E070
E070
E070
E070
E070
E070
E070
E070
E070
E070
ENDCHAR
STARTCHAR 0069
ENCODING 105
SWIDTH 123 0
DWIDTH 6 0
BBX 3 21 0 0
BITMAP
E0
E0
E0
00
00
00
E0
E0
E0
E0
E0
E0
E0
E0
E0
E0
E0
E0
E0
E0
E0
ENDCHAR
STARTCHAR 006A
ENCODING 106
SWIDTH 246 0
DWIDTH 12 0
BBX 9 27 0 -6
BITMAP
0380
0380
0380
0000
0000
0000
0380
0380
0380
0380
0380
0380
0380
0380
0380
0380
0380
0380
0380
0380
0380
0380
0380
0380
FC00
FC00
FC00
ENDCHAR
STARTCHAR 006B
ENCODING 107
SWIDTH 308 0
DWIDTH 15 0
BBX 12 21 0 0
BITMAP
E000
E000
E000
E000
E000
E000
E070
E070
E070
E380
E380
E380
FC00
FC00
FC00
E380
E380
E380
E070
E070
E070
ENDCHAR
STARTCHAR 006C
ENCODING 108
SWIDTH 185 0
DWIDTH 9 0
BBX 6 21 0 0
BITMAP
E0
E0
E0
E0
E0
E0
E0
E0
E0
E0
E0
E0
E0
E0
E0
E0
E0
E0
1C
1C
1C
ENDCHAR
STARTCHAR 006D
ENCODING 109
SWIDTH 370 0
DWIDTH 18 0
BBX 15 15 0 0
BITMAP
FC70
FC70
FC70
E38E
E38E
E38E
E38E
E38E
E38E
E38E
E38E
E38E
E38E
E38E
E38E
ENDCHAR
STARTCHAR 006E
ENCODING 110
SWIDTH 308 0
DWIDTH 15 0
BBX 12 15 0 0
BITMAP
FF80
FF80
FF80
E070
E070
E070
E070
E070
E070
E070
E070
E070
E070
E070
E070
ENDCHAR
STARTCHAR 006F
ENCODING 111
SWIDTH 308 0
DWIDTH 15 0
BBX 12 15 0 0
BITMAP
1F80
1F80
1F80
E070
E070
E070
E070
E070
E070
E070
E070
E070
1F80
1F80
1F80
ENDCHAR
STARTCHAR 0070
ENCODING 112
SWIDTH 308 0
DWIDTH 15 0
BBX 12 21 0 -6
BITMAP
FF80
FF80
FF80
E070
E070
E070
E070
E070
E070
E070
E070
E070
FF80
FF80
FF80
E000
E000
E000
E000
E000
E000
ENDCHAR
STARTCHAR 0071
ENCODING 113
SWIDTH 308 0
DWIDTH 15 0
BBX 12 21 0 -6
BITMAP
1FF0
1FF0
1FF0
E070
E070
E070
E070
E070
E070
E070
E070
E070
1FF0
1FF0
1FF0
0070
0070
0070
0070
0070
0070
ENDCHAR
STARTCHAR 0072
ENCODING 114
SWIDTH 246 0
DWIDTH 12 0
BBX 9 15 0 0
BITMAP
E380
E380
E380
FC00
FC00
FC00
E000
E000
E000
E000
E000
E000
E000
E000
E000
ENDCHAR
STARTCHAR 0073
ENCODING 115
SWIDTH 308 0
DWIDTH 15 0
BBX 12 15 0 0
BITMAP
1FF0
1FF0
1FF0
E000
E000
E000
1F80
1F80
1F80
0070
0070
0070
FF80
FF80
FF80
ENDCHAR
STARTCHAR 0074
ENCODING 116
SWIDTH 246 0
DWIDTH 12 0
BBX 9 21 0 0
BITMAP
1C00
1C00
1C00
1C00
1C00
1C00
FF80
FF80
FF80
1C00
1C00
1C00
1C00
1C00
1C00
1C00
1C00
1C00
0380
0380
0380
ENDCHAR
STARTCHAR 0075
ENCODING 117
SWIDTH 308 0
DWIDTH 15 0
BBX 12 15 0 0
BITMAP
E070
E070
E070
E070
E070
E070
E070
E070
E070
E070
E070
E070
1FF0
1FF0
1FF0
ENDCHAR
STARTCHAR 0076
ENCODING 118
SWIDTH 370 0
DWIDTH 18 0
BBX 15 15 0 0
BITMAP
E00E
E00E
E00E
E00E
E00E
E00E
E00E
E00E
E00E
1C70
1C70
1C70
0380
0380
0380
ENDCHAR
STARTCHAR 0077
ENCODING 119
SWIDTH 370 0
DWIDTH 18 0
BBX 15 15 0 0
BITMAP
E00E
E00E
E00E
E38E
E38E
E38E
E38E
E38E
E38E
E38E
E38E
E38E
1C70
1C70
1C70
ENDCHAR
STARTCHAR 0078
ENCODING 120
SWIDTH 370 0
DWIDTH 18 0
BBX 15 15 0 0
BITMAP
E00E
E00E
E00E
1C70
1C70
1C70
0380
0380
0380
1C70
1C70
1C70
E00E
E00E
E00E
ENDCHAR
STARTCHAR 0079
ENCODING 121
SWIDTH 308 0
DWIDTH 15 0
BBX 12 21 0 -6
BITMAP
E070
E070
E070
E070
E070
E070
E070
E070
E070
E070
E070
E070
1FF0
1FF0
1FF0
0070
0070
0070
1F80
1F80
1F80
ENDCHAR
STARTCHAR 007A
ENCODING 122
SWIDTH 308 0
DWIDTH 15 0
BBX 12 15 0 0
BITMAP
FFF0
FFF0
FFF0
0380
0380
0380
1C00
1C00
1C00
E000
E000
E000
FFF0
FFF0
FFF0
ENDCHAR
STARTCHAR 00A0
ENCODING 160
SWIDTH 308 0
DWIDTH 15 0
BBX 0 0 0 0
BITMAP
ENDCHAR
ENDFONT
